<?xml version="1.0"?>
<svg width="108" height="147" xmlns="http://www.w3.org/2000/svg" xmlns:svg="http://www.w3.org/2000/svg">
 <!-- Created with SVG-edit - https://github.com/SVG-Edit/svgedit-->
 <g class="layer">
  <title>Layer 1</title>
  <rect fill="#ffffff" height="147" id="svg_1" rx="22" ry="22" stroke="#000000" width="108" x="0" y="0"/>
  <path d="m88.65,60.31c0,4.42 -15.67,8 -35,8m35,-8l0,0c0,4.42 -15.67,8 -35,8c-19.33,0 -35,-3.58 -35,-8m0,0l0,0c0,-4.42 15.67,-8 35,-8c19.33,0 35,3.58 35,8l0,32c0,4.42 -15.67,8 -35,8c-19.33,0 -35,-3.58 -35,-8z" fill="#7f00ff" id="svg_2" stroke="#000000"/>
 </g>
</svg>